<?xml version="1.0" encoding="UTF-8" standalone="no"?>
<!-- Created with Inkscape (http://www.inkscape.org/) -->

<svg
   version="1.1"
   id="svg1"
   width="150.08"
   height="104"
   viewBox="0 0 150.08 104"
   sodipodi:docname="Waq_yi__mis_riyyat___bpt6k12151818_1.png"
   xmlns:inkscape="http://www.inkscape.org/namespaces/inkscape"
   xmlns:sodipodi="http://sodipodi.sourceforge.net/DTD/sodipodi-0.dtd"
   xmlns="http://www.w3.org/2000/svg"
   xmlns:svg="http://www.w3.org/2000/svg">
  <defs
     id="defs1" />
  <sodipodi:namedview
     id="namedview1"
     pagecolor="#ffffff"
     bordercolor="#000000"
     borderopacity="0.25"
     inkscape:showpageshadow="2"
     inkscape:pageopacity="0.0"
     inkscape:pagecheckerboard="0"
     inkscape:deskcolor="#d1d1d1"
     inkscape:zoom="2.2692308"
     inkscape:cx="74.915254"
     inkscape:cy="52"
     inkscape:window-width="1360"
     inkscape:window-height="757"
     inkscape:window-x="0"
     inkscape:window-y="38"
     inkscape:window-maximized="0"
     inkscape:current-layer="g1"
     inkscape:export-bgcolor="#ffffff86" />
  <g
     inkscape:groupmode="layer"
     inkscape:label="Image"
     id="g1">
    <path
       style="fill:#4f4f4f;stroke:none"
       d="m 71.040001,3.52 -2.56,5.44 2.56,-1.28 6.933335,11.52 14.026665,24.96 5.6,8.96 -0.96,-0.64 7.146669,11.52 2.13333,4.48 c 3.07156,1.826328 4.90396,7.898052 6.93333,10.88 0.81821,1.202275 1.3533,4.07334 2.98667,3.84 l 0.32,3.2 1.92,2.24 4.48,7.36 c -4.67136,-0.860508 -11.32625,-1.015449 -16,-0.10667 -1.40023,0.272275 -3.14363,-0.315898 -4.16,0.74667 l 3.52,1.28 h 0.32 0.32 l 4.16,-0.64 h 10.56 l 4.8,-0.64 8.64,0.32 V 96 H 136 l -0.32,0.96 7.68,0.32 -0.32,-0.96 -4.48,0.32 0.64,-0.64 v -0.32 l -2.24,-1.6 c -0.0436,-1.655361 -1.15906,-2.587363 -2.13333,-3.84 -2.28845,-2.942285 -5.02852,-5.589863 -7.14667,-8.64 -0.89763,-1.292588 -2.17456,-4.045928 -3.84,-3.52 l 2.24,-1.92 v -0.32 l -3.52,0.96 c 0.85688,-1.356724 -0.32148,-1.922959 -0.96,-3.2 1.10381,0 2.14043,0.184282 2.56,-0.96 l -4.48,-0.32 0.32,0.96 -1.28,-0.96 c 0.19269,1.830527 3.94677,7.340313 5.76,6.72 -0.49655,1.886904 3.25872,7.095029 5.12,7.68 v -1.6 c 0.76766,0.883965 1.02307,1.237959 0,1.92 l 6.08,8.64 c -0.85436,-0.359736 -2.0472,-0.01998 -2.82667,-0.48 -1.06448,-0.628223 -1.63611,-2.120508 -2.4,-3.04 -2.15494,-2.593906 -6.33639,-6.710664 -7.25333,-9.92 l -0.96,0.32 c 0.3242,1.539932 1.54125,3.660674 3.2,3.84 v 0.32 c -1.35886,0.574902 0.37023,1.821641 1.28,1.92 v 0.32 l -0.64,0.32 2.56,4.8 2.88,0.96 v 0.32 c -4.2899,0 -5.17598,-3.217656 -7.25333,-6.4 -0.63581,-0.974014 -1.4274,-3.295664 -2.66667,-2.24 l -0.32,-0.96 h 0.64 c -0.43561,-1.504873 -1.54141,-3.34541 -3.2,-3.52 0.51392,-1.9529 -1.14765,-3.48272 -2.08,-5.12 -2.03993,-3.58231 -4.23223,-7.157891 -6.56,-10.56 h -0.32 c 0.71532,3.397759 3.42243,7.053657 5.33333,9.92 2.73044,4.095664 4.93484,8.541172 7.36,12.8 1.44734,2.54166 3.07952,6.154697 6.18667,6.4 V 96 l -1.92,0.64 c -1.01952,-2.378848 -4.79998,-3.116846 -4.8,-6.4 -2.69217,-1.910576 -4.2567,-6.452725 -5.86667,-9.28 -2.39347,-4.203184 -5.12367,-8.280591 -7.57333,-12.48 -4.8372,-8.292344 -10.187098,-16.320737 -15.039999,-24.64 -4.983437,-8.543037 -9.137461,-17.587627 -14.4,-25.92 3.877373,1.530557 7.289453,9.114839 9.81333,12.48 0.823301,1.097729 2.093858,4.049746 3.30667,4.16 v 0.32 l -0.64,0.32 v 0.32 l 0.64,0.64 c 1.481914,-5e-6 2.454483,2.183506 2.56,3.52 l 2.34667,2.56 5.706659,8.32 2.50667,4.16 2.98667,3.52 5.33333,7.36 0.96,-0.64 c 0.036,1.367295 -0.35555,2.053086 0.96,2.88 v -0.96 l 0.96,0.64 c -0.49362,-1.875781 -1.94934,-3.274688 -3.09333,-4.8 -2.69625,-3.595 -5.4533,-7.212739 -8,-10.88 C 97.648741,40.697358 90.524122,29.143252 82.346671,18.24 80.115787,15.265498 77.732599,12.312539 75.626666,9.28 74.273751,7.3318066 73.43942,4.4927539 71.040001,3.52 m -23.68,0.64 -0.32,0.32 c 0.372426,2.0217285 0.439165,5.3079883 2.88,5.76 l 0.96,2.88 3.52,7.04 c -3.696724,-2.198047 -3.686397,-10.3639648 -7.68,-11.52 l 7.36,13.44 c -3.015909,-3.097422 -5.937852,-8.994658 -10.24,-10.24 l -0.96,-1.28 3.2,5.12 c 1.430288,-0.122588 2.509477,0.7771 2.24,2.24 l -1.6,-0.64 c 0.33768,3.207949 6.190327,4.70125 6.08,7.68 l -2.56,-1.28 V 24 l 2.24,0.96 v 0.32 l -1.28,1.28 L 40.96,23.36 c 0.691841,2.138408 7.136563,3.445156 9.280001,3.84 v 0.32 c -6.0673,0 -13.66315,-3.248413 -19.520001,-0.32 v 0.64 L 32,28.48 c 1.331167,-0.429409 3.080826,-1.324443 4.16,0 h 0.32 0.32 L 39.68,28.106665 49.920001,28.48 c -1.808062,0.904028 -4.091246,0.766646 -6.08,0.96 -2.836871,0.275806 -5.52993,1.32415 -8.320001,1.866665 -1.530642,0.297622 -4.830886,0.488862 -4.16,2.613335 h 3.52 c 3e-6,-1.449561 2.35689,-1.548452 3.52,-1.92 3.645606,-1.164565 7.16273,-1.555234 10.880001,-2.24 -1.658199,2.562666 -9.17886,4.185244 -12.160001,5.013335 -1.580893,0.439136 -3.94197,0.954751 -4.48,2.666665 4.102918,-0.323916 9.070601,-2.772227 12.800001,-4.533335 1.533188,-0.724004 3.608798,-2.41564 4.48,-0.266665 L 38.08,38.613335 34.56,41.28 c 3.585105,0 8.320582,-3.804756 11.520001,-5.493335 1.451972,-0.766318 2.820376,-2.31769 4.48,-2.186665 L 40.266668,41.813335 37.12,45.44 38.08,45.76 47.360001,37.333335 51.200001,34.56 43.466666,43.2 40.64,47.04 c 2.4071,-0.520454 5.558428,-5.213052 7.360001,-7.04 0.940869,-0.954121 1.477338,-2.240005 2.88,-2.24 C 47.092911,43.756221 43.930245,50.186846 39.893333,56 34.49274,63.776855 28.790232,71.328804 24.266668,79.68 21.79521,84.242695 16.415899,90.091953 16,95.36 l -8.9599999,0.32 1.28,2.24 c 7.5426429,-1.389434 14.7422979,0 22.3999999,0 2.855144,0 7.124666,0.538223 9.6,-0.96 V 96.64 H 24.64 L 34.24,78.4 C 30.289798,80.375098 27.980638,87.174209 25.973333,90.88 24.778738,93.08541 24.706199,95.239785 22.08,96 L 29.226668,82.24 32.64,76.48 c -1.689619,0.489102 -2.380554,2.111377 -3.306667,3.46667 -2.459793,3.599697 -4.83697,7.382324 -6.88,11.25333 -1.177937,2.231875 -1.713474,4.999443 -4.533333,4.48 1.098697,-4.175039 4.747068,-8.412109 6.933333,-12.16 4.46114,-7.647676 9.047327,-15.472954 14.08,-22.72 4.233767,-6.096626 6.970335,-13.015508 11.093333,-19.2 3.14915,-4.723726 7.785249,-10.309253 9.653335,-15.68 0.345356,-0.992896 -0.445894,-2.235259 -0.05333,-3.52 1.086094,-3.554482 2.98666,-6.93332 4.64,-10.24 1.002832,-2.005664 0.934487,-4.206875 1.973335,-6.4 -1.778755,0.6311621 -2.30001,2.857168 -2.773335,4.48 -1.114141,3.819922 -2.904439,7.50251 -4.266665,11.2 h -0.32 l 1.92,-11.2 h -0.64 l -1.92,13.44 h -0.32 l -0.64,-10.24 -0.32,-6.4 h -0.64 l 0.32,13.44 -3.413335,-10.24 -1.706665,-3.52 -0.32,1.92 c 2.064638,1.622207 3.949384,8.852207 4.16,11.52 C 53.278907,17.523945 51.453585,12.78793 50.346666,9.6 49.723463,7.8051758 49.443736,4.7794824 47.360001,4.16 m 19.2,0.32 -0.32,0.96 0.96,-0.64 -0.64,-0.32 m 14.08,3.52 c 0.322139,3.060293 3.024229,5.820762 4.8,8.32 l -2.72,-7.6266699 L 80.640001,8 m -11.84,1.28 v 0.64 h 0.64 l -0.64,-0.64 m 0.533335,1.38667 0.21333,0.10666 -0.21333,-0.10666 m -3.093335,0.85333 -6.4,12.48 0.32,0.32 h 0.64 c 2.12625,-3.366563 6.295937,-8.451416 6.72,-12.48 l -1.28,-0.32 M 34.56,15.36 l -0.32,1.6 3.52,0.32 v 0.32 l -0.64,0.32 7.680001,4.586665 6.08,3.093335 c -0.590889,-1.987524 -6.854488,-5.48998 -8.96,-6.13333 C 40.35566,18.988682 37.772085,18.398428 38.08,16.32 h -3.2 l 0.32,-0.96 h -0.64 m 44.480001,0.96 v 0.96 h -0.64 v -0.96 h 0.64 M 38.4,17.28 39.04,17.92 V 17.28 H 38.4 m 10.560001,0.64 c 2.203017,1.27543 4.299673,3.799346 5.44,6.08 -1.551602,-0.177329 -6.251309,-4.707021 -5.44,-6.08 m 18.56,0 -3.2,5.76 1.28,0.32 2.56,-6.08 h -0.64 m 18.88,0 0.32,0.32 -0.32,-0.32 m -41.28,1.28 0.32,0.32 -0.32,-0.32 M 30.72,19.52 v 0.32 l 0.96,0.32 -0.96,-0.64 m -0.96,0.96 0.96,0.96 0.32,-0.96 -0.32,-0.32 -0.96,0.32 m 1.6,0 v 0.32 l 8.32,2.24 c -1.475878,-1.878398 -6.125026,-2.617764 -8.32,-2.56 m 25.600001,0.32 0.32,2.56 h -0.32 V 20.8 m -2.24,0.32 0.96,2.88 -0.96,-2.88 m 15.68,4.48 3.84,-1.6 3.2,-2.88 c -2.415366,0.635615 -7.04,1.546953 -7.04,4.48 m -11.52,-0.96 -4.8,8 -1.92,2.56 c -0.947871,-5.145571 0.230927,-10.389229 6.72,-10.56 m 15.36,0.96 v 1.28 l -1.6,-0.32 c 0.115171,4.376265 6.929639,0.290205 3.52,-0.96 l -0.32,1.92 -0.96,-1.92 h -0.64 m -7.306665,1.12 c -2.308057,1.45772 1.273257,4.510454 3.09333,3.2 1.694468,-1.22002 -1.4494,-4.238271 -3.09333,-3.2 m 2.506665,2.4 c -1.253589,-0.03299 -1.784209,-0.31002 -1.92,-1.6 l 1.92,1.6 m -34.026668,-0.853335 0.213335,0.10667 -0.213335,-0.10667 M 78.080001,29.12 c 0.01924,0.73105 0.345269,1.532578 0.266665,2.24 -0.414517,3.730684 -3.587705,0.763618 -5.066665,0.373335 -1.192842,-0.31478 -2.540523,0.248579 -3.52,0.906665 -2.006831,1.34834 -1.860645,4.507832 -4.16,5.44 -0.647066,-1.756318 -2.081304,-6.395142 -3.84,-7.04 0,2.408872 2.236748,10.535161 6.08,8.373335 1.645005,-0.925313 0.933403,-3.927163 2.88,-4.64 2.530903,-0.926812 4.242803,2.49167 7.04,0.64 1.997744,-1.322451 2.401865,-4.984731 0.32,-6.293335 m 35.519999,1.6 3.84,0.32 c -1.04591,-1.093457 -3.18609,-2.519526 -3.84,-0.32 m 6.72,0 c 0.96553,2.633296 2.48666,-0.11958 3.84,-0.373335 1.11981,-0.209966 2.02354,0.228682 3.2,-0.266665 -2.53781,-1.845684 -4.73252,0.882896 -7.04,0.64 m -6.72,7.36 c -1.22822,-0.969653 -2.31907,-1.400264 -3.84,-0.96 v 0.64 l 4.8,0.64 1.6,2.24 -1.92,-4.16 0.96,0.32 c 1.52732,-4.145557 -0.84862,-4.552725 -0.96,-0.32 -1.23241,-1.510698 -2.3567,-3.829365 -3.89333,-5.013335 -1.48864,-1.146987 -2.67387,0.269277 -2.08,1.813335 0.90901,2.363389 4.35151,2.312734 5.33333,4.8 m 10.56,0.64 -0.64,2.88 h -0.32 c 0,-1.473223 -0.23499,-3.337837 -1.92,-3.52 l 1.6,4.48 2.61333,-3.2 3.78667,-1.92 -2.88,0.32 c 0.95419,-1.908374 2.48329,-4.091953 1.28,-6.08 -2.78741,0.828691 -1.40717,5.379907 -3.52,7.04 m -3.84,-5.76 v 0.64 h 0.64 v -0.64 h -0.64 m -68.479999,2.88 -0.96,1.6 0.96,-1.6 m 30.08,1.6 c -1.105586,3.501025 1.927432,4.599214 2.24,0.64 l -2.24,-0.64 m 35.519999,0 -0.64,3.2 c 1.29304,-0.418335 1.68228,-2.350737 0.64,-3.2 m -39.359999,0.32 c -1.827202,2.893066 1.658745,4.713413 2.56,1.6 l -2.56,-1.6 m 37.439999,0 0.96,0.64 -0.96,-0.64 m 10.88,0 -0.32,0.32 0.32,-0.32 m 1.6,1.28 0.32,0.32 -0.32,-0.32 m -70.399999,2.24 1.92,1.6 h 0.64 l 1.92,-1.6 v -0.96 l -1.6,0.96 c -1.061045,-0.586367 -2.646597,-2.04228 -2.88,0 M 112.64,40.32 112.32,41.6 h 2.88 l -2.56,-1.28 m 11.84,1.6 v 0.32 c 1.34648,0 2.44949,-0.120117 3.2,-1.28 -1.36199,-0.573467 -2.06514,0.153652 -3.2,0.96 m -57.599999,6.4 c -1.007344,-0.477163 -2.069131,-1.154351 -3.2,-1.28 -6.991885,-0.776875 -8.261968,6.324009 -12.8,9.546665 -1.20628,0.856631 -3.005147,-0.09104 -3.146665,-1.546665 -0.238038,-2.448398 2.333061,-5.335381 2.826665,-7.68 -2.768238,0.870024 -6.582178,10.255879 -2.56,11.52 l -0.32,0.96 c 1.78538,-0.516821 3.149272,-0.05114 4.746665,-1.386665 2.96144,-2.475957 4.430298,-6.404829 8.053335,-8.26667 0.966582,-0.496714 4.303418,-1.289365 3.946665,1.013335 -0.116406,0.751362 -0.893145,1.415767 -1.066665,2.24 l 1.92,-2.24 7.04,0.64 c 0,6.778066 -0.942852,14.546313 0.426665,21.12 0.835537,4.010586 4.947812,5.824844 8.16,2.56 1.726099,-1.75439 2.39519,-5.065898 1.280005,-7.36 -0.864346,-1.778086 -3.1077,-3.80894 -5.06667,-2.18667 -1.688013,1.397886 -2.148399,5.05085 0.32,5.92 1.240532,0.436807 3.347661,0.654619 3.52,-0.85333 h 0.32 c 0,3.771958 -4.71376,5.311504 -6.72,1.92 -1.262984,-2.135049 0.547129,-6.020107 -1.28,-7.36 2.852739,-2.852739 0.07522,-9.897314 0.64,-13.44 0.227549,-1.427339 2.567407,-2.507915 3.84,-2.24 l 1.6,-1.6 c 0.365498,0.901567 0.875972,1.267354 1.6,1.92 0.859854,0.775078 1.957998,1.959248 3.2,2.08 2.987256,0.29043 3.781709,-8.361187 -1.28,-7.306665 -0.729385,0.151958 -1.27772,0.229658 -1.92,0.64 -1.238638,0.791352 -2.325293,1.817793 -3.52,2.666665 3.470703,-9.420493 -9.717417,-8.004463 -10.56,0 M 116.16,41.28 l 1.28,3.52 -2.88,-0.32 3.73333,2.56 2.98667,10.24 -0.96,0.32 -1.6,-2.56 c 0.3575,1.940752 1.63223,3.533447 -1.28,3.84 0.50941,1.574521 4.70358,1.285942 5.12,-0.64 l -2.24,0.64 3.2,-2.88 v -0.32 l -1.92,0.64 c -1.01695,-2.576235 -1.66753,-5.305815 -2.45333,-8 -0.39421,-1.351587 -0.11772,-2.700615 -1.70667,-3.2 l 0.64,-0.64 -1.92,-3.2 m 15.68,0 c -1.37019,2.169473 -1.03784,3.878921 -3.52,5.12 l 0.32,-3.52 H 128 c -0.54769,1.300757 -0.41239,2.629961 0.32,3.84 l -2.56,1.6 0.32,-1.92 c -1.61381,0.189863 -0.92173,1.404434 -1.22667,2.56 -0.52697,1.996953 -2.11271,3.152173 -2.29333,5.44 h 0.32 l 1.92,-4.16 2.88,0.64 v -0.96 h -1.92 c 2.05044,-2.889263 2.88088,-1.06124 5.44,-1.6 -0.47117,-1.099395 -1.06263,-1.249014 -2.24,-1.28 v -0.32 l 4.48,0.96 0.32,-0.32 -2.24,-1.6 v -0.32 c 1.36601,-0.39542 3.48817,-1.217256 4.48,0 h 0.32 c 3.01082,-4.912422 -3.78556,-0.770615 -5.44,-0.64 v -0.32 c 1.38277,-0.490659 1.6,-1.853188 1.6,-3.2 h -0.64 m -23.04,0.64 -0.32,0.32 0.96,1.92 h 0.32 l -0.32,-2.24 h -0.64 m 10.24,0.32 -0.32,1.6 1.28,-1.28 -0.32,-0.32 h -0.64 m -15.36,0.32 c 0.0633,2.405601 2.66433,2.08666 4.48,2.666665 1.78494,0.57019 3.46623,1.794663 4.8,3.093335 l -3.84,0.32 v 0.64 l 0.32,0.32 c 2.73725,-0.504229 4.72663,-1.828491 6.08,1.6 l -3.84,-0.64 v 0.64 l 0.32,0.32 h 4.8 c -1.12921,-3.900947 -9.12242,-8.8548 -13.12,-8.96 m 19.2,0.64 -0.64,2.56 h -0.32 l -0.96,-2.24 0.74667,3.52 -0.10667,2.88 h 0.32 l 1.6,-6.72 h -0.64 m -55.679999,6.08 c 0.238384,-1.132329 0.842617,-2.000459 1.6,-2.88 0.895742,-1.04022 2.309853,-2.837495 3.84,-2.88 1.913296,-0.05315 4.457363,2.529126 3.36,4.48 -0.654312,1.163223 -3.132359,1.230513 -4.32,1.28 -1.487495,0.06198 -2.990982,0 -4.48,0 M 112.64,44.16 l -0.32,0.32 0.96,2.56 v -2.88 h -0.64 m 10.88,2.24 2.24,-1.92 c -1.32287,0.03575 -1.87832,0.670547 -2.24,1.92 m -17.6,-0.32 c 0.21634,2.001147 2.09244,1.0727 3.52,0.96 V 46.4 l -3.52,-0.32 m -21.119999,3.84 c -1.330937,-0.385273 -2.80958,-1.531289 -3.2,-2.88 2.19,-0.633945 3.2,0.814966 3.2,2.88 m 22.826669,-2.026665 0.10666,0.21333 -0.10666,-0.21333 M 117.12,48.32 c -0.40722,0.967129 -0.45178,2.131084 0.64,2.56 l -0.64,-2.56 m -42.559999,1.28 -0.32,0.32 0.32,-0.32 m -17.28,1.6 v 0.64 h -0.64 V 51.2 h 0.64 m 71.999999,3.2 -3.2,0.32 1.28,-2.24 -3.2,3.2 1.6,-0.96 h 0.32 l 7.04,0.32 v -0.32 l -2.56,-0.96 1.28,-2.24 c -1.5098,-0.476777 -2.858,1.464482 -2.56,2.88 m 4.16,-0.64 c 1.51938,-0.439819 2.83171,-0.404873 2.88,-2.24 -1.52374,0.120298 -2.70706,0.597075 -2.88,2.24 m -21.12,-1.6 0.32,1.28 h -3.84 v 0.64 l 8,2.24 -2.56,0.32 v 1.28 l 2.56,-1.28 h 0.32 l 1.28,1.28 -1.92,-4.48 h -0.32 l 0.32,1.6 -4.16,-2.88 m 4.8,0 1.6,2.24 -1.6,-2.24 m -36.159999,4.16 c 2.15626,-0.397207 6.51792,-1.67123 7.68,-3.52 -1.615439,-0.552651 -7.136465,1.790576 -7.68,3.52 m -7.786665,-2.986665 -0.10667,0.21333 0.10667,-0.21333 M 112.96,53.546665 c 0.24748,0 0.0513,0.159316 -0.10667,0.10667 L 112.96,53.546665 M 64.640001,55.36 V 56 l 2.88,2.24 1.28,-2.24 -4.16,-0.64 M 134.08,55.04 l 4.48,3.2 c 1.08649,-2.580371 -2.66757,-2.966133 -4.48,-3.2 m -22.08,1.28 2.24,-0.64 c -0.84831,-0.616948 -1.89414,-0.429033 -2.24,0.64 M 57.333336,55.84 c -1.58105,0.998555 0.144599,3.335005 1.546665,2.346665 1.502397,-1.059067 -0.03647,-3.300474 -1.546665,-2.346665 m 30.666665,-0.16 v 1.92 c -2.352051,0.866543 -3.062861,5.192612 -0.32,6.08 l -0.64,-5.12 c 1.237022,0 2.463897,0.0062 2.88,-1.28 h -0.96 l 0.32,-1.28 -1.28,-0.32 M 126.08,56 c 0,1.102827 -0.18162,1.870649 0.96,2.24 L 126.72,56 h -0.64 m 3.52,0 c 0,1.311577 -0.26787,2.392661 1.28,2.56 L 129.6,56 m 3.2,0 0.64,3.2 h 0.32 L 133.44,56 h -0.64 m -74.239999,0.32 -0.96,0.96 0.32,-0.96 h 0.64 m 14.613335,0.213335 -0.10667,0.21333 0.10667,-0.21333 M 81.600001,58.56 c -0.420425,2.282305 -0.04317,3.451494 2.56,3.52 0,-2.15415 -0.119307,-3.327314 -2.56,-3.52 m -3.52,0.96 -0.32,2.88 2.56,0.32 c 0,-2.040791 -0.244058,-2.569702 -2.24,-3.2 m -30.933335,0.533335 0.10667,0.21333 -0.10667,-0.21333 M 64.960001,60.16 c -2.729878,3.989824 1.488008,6.474346 0.533335,10.24 -0.913775,3.604331 -6.595342,0.337993 -7.893335,-0.96 0.856523,-0.247939 1.727031,-0.369404 2.56,-0.69333 2.260649,-0.879141 3.39875,-2.879014 0.64,-4.37334 -2.51938,-1.364663 -11.01439,-2.946733 -12.16,0.90667 2.067441,0.708838 4.027036,3.744409 6.08,2.88 -0.565362,1.901655 -3.213374,3.663037 -4.373335,5.44 -2.434615,3.729619 -3.484693,8.637725 -2.986665,13.12 0.42478,3.823018 3.710986,5.436348 7.04,5.76 5.56916,0.541445 9.831792,-2.045078 13.013335,-6.72 0.910508,-1.337891 2.342715,-4.478848 1.65333,-6.08 -0.924727,-2.147759 -6.559053,-4.742852 -8.266665,-2.88 -2.164951,-2.164951 -8.749141,0.467031 -10.56,-1.92 2.358779,0.318755 2.24166,-4.192095 4.48,-4.32 1.146137,-0.06549 1.55539,1.435664 2.24,2.08 1.326074,1.248066 3.429966,1.991597 5.12,1.28 V 73.6 l -1.28,-0.32 v -0.32 l 1.92,-0.32 v 1.28 c 2.208833,-0.05813 6.155893,-3.048945 3.52,-5.12 1.169975,-1.214971 -0.307808,-3.495615 -0.96,-4.8 l 1.92,0.96 -2.24,-4.8 m -15.253335,0.533335 0.10667,0.21333 -0.10667,-0.21333 M 78.720001,60.8 l 0.32,0.64 h -0.64 l 0.32,-0.64 m 1.173335,0.533335 -0.10667,0.21333 0.10667,-0.21333 M 109.12,61.12 l 2.24,4.8 h 0.32 c -0.12871,-1.630337 -1.19177,-3.939971 -2.56,-4.8 m 8.64,1.28 c 0.55186,1.705762 4.35366,0.780186 4.8,-0.64 l -4.8,0.64 m -44.159999,-0.32 -0.64,1.28 0.64,-1.28 m 39.679999,1.28 -0.32,0.32 0.32,-0.32 m -60.159999,0.96 v 0.32 l -1.92,-0.32 h 1.92 m 0.96,0 v 0.64 h -0.64 v -0.64 h 0.64 m 2.56,0 -0.32,0.32 0.32,-0.32 m 66.239999,0.32 -4.16,1.28 v 0.64 c 1.03352,0 5.3455,-0.260322 4.16,-1.92 M 59.520001,67.2 c -0.869429,0.06864 -1.693042,0.431836 -2.56,0.48 -1.247603,0.06931 -3.279732,-1.162588 -1.6,-2.34667 1.256513,-0.885737 3.562544,0.916172 4.16,1.86667 m 27.2,2.24 c 1.543467,-0.406172 4.488379,-3.422832 5.76,-1.92 h 0.32 l 0.64,-0.32 v -0.32 h -0.96 l 3.2,-1.28 v 1.28 c 1.174346,-0.478438 0.606143,-1.902451 -0.64,-1.92 -2.449277,-0.0345 -7.126738,2.418896 -8.32,4.48 m -32.64,-3.2 0.32,0.64 h -0.64 l 0.32,-0.64 m 7.893335,0.21333 -0.10667,0.21334 0.10667,-0.21334 M 112.32,66.24 112,66.56 c 0.75136,1.586206 1.93425,4.902197 3.84,5.12 l 1.28,3.2 h 0.32 c 0.58871,-1.72085 -3.5453,-7.650195 -5.12,-8.64 m -59.199999,0.32 -0.32,0.32 0.32,-0.32 m 7.36,0 -0.32,0.32 0.32,-0.32 m -59.84000099,0.64 0.32,0.32 -0.32,-0.32 m 72.96000099,0.32 -0.32,0.32 0.32,-0.32 m 7.36,3.2 c -0.830703,-0.240469 -2.472319,-0.300986 -3.146665,-0.8 -0.558125,-0.413013 -0.569653,-1.829849 0,-2.24 1.921592,-1.383545 2.890376,1.822627 3.146665,3.04 M 115.52,68.16 c 0.37827,1.203604 1.42621,1.667871 2.56,1.28 -0.68656,-1.185879 -1.20994,-1.493164 -2.56,-1.28 m -56.639999,0 v 0.64 h -0.64 l 0.64,-0.64 m 22.4,0 -0.32,0.32 0.32,-0.32 m -23.68,0.32 -0.96,0.64 V 68.8 l 0.96,-0.32 M 120.96,68.8 121.6,69.76 H 120 v 0.32 l 1.92,0.32 1.92,-1.92 -2.88,0.32 m -65.599999,0.10667 c 0.247475,0 0.05126,0.159307 -0.106665,0.10666 l 0.106665,-0.10666 m 26.24,0.96 c 0.247466,0 0.05127,0.159307 -0.106665,0.10666 l 0.106665,-0.10666 M 117.76,71.04 h 1.28 c -0.33116,-0.812861 -0.94884,-0.812871 -1.28,0 m -60.479999,0.10667 0.106665,0.10666 c -0.157925,0.05265 -0.354136,-0.10666 -0.106665,-0.10666 m 5.76,1.17333 -0.32,0.32 0.32,-0.32 m 29.12,7.36 c -1.933437,3.33958 -6.438906,5.97874 -10.24,6.50667 -2.852222,0.396143 -5.376489,-1.435274 -5.173335,-4.53334 0.05944,-0.906406 0.43437,-2.038716 0.693335,-2.93333 -1.234751,0.452739 -1.42273,1.997441 -1.706665,3.2 -0.889048,3.765371 1.231528,7.519463 5.546665,7.04 4.588291,-0.509805 10.133828,-4.581592 12.10667,-8.64 1.147744,-2.361069 1.145889,-6.173721 -1.54667,-7.52 -2.646562,-1.323281 -5.979131,3.293721 -4.64,5.6 0.814326,1.402441 3.591807,1.207988 4.96,1.28 m -32.96,-6.72 1.6,0.96 -1.92,-0.64 0.32,-0.32 m 33.28,5.12 c -6.267148,-1.649243 0,-6.438584 0,0 m -17.92,-3.41333 0.106665,0.10666 c -0.15793,0.05265 -0.354136,-0.10666 -0.106665,-0.10666 m 1.28,0.53333 v 0.64 h -0.64 V 75.2 h 0.64 m 41.599999,0 c 0.40243,1.861245 3.21497,6.519473 5.12,6.72 -0.31631,-1.502471 -0.82621,-1.830747 -2.24,-2.24 l 0.96,-0.32 c -0.42863,-1.628809 -2.06274,-4.111968 -3.84,-4.16 m -63.679999,2.88 c 1.180595,-1.049419 2.765063,0.223105 4.16,0.37333 2.678647,0.288472 11.418076,-0.169487 8.8,5.06667 -2.235708,4.471416 -11.676621,9.274297 -15.733335,4.48 -2.802203,-3.311689 -1.928238,-8.09835 -0.746665,-11.84 1.337514,0.246387 3.086474,0.540605 3.52,1.92 m 22.72,-1.81333 c 0.247466,0 0.05126,0.159307 -0.106665,0.10666 l 0.106665,-0.10666 m -16,0.53333 c -0.106524,0.985356 -0.294639,1.173477 -1.28,1.28 l 1.28,-1.28 m 63.359999,0.32 -0.32,0.32 0.32,-0.32 m -65.279999,0.32 v 0.64 h -0.96 v -0.64 h 0.96 m 31.04,0 v 0.64 h -0.64 v -0.64 h 0.64 m 0.64,0 -0.32,0.32 0.32,-0.32 m -25.6,0.96 -0.32,0.32 0.32,-0.32 m 2.56,0.64 V 80 l -0.64,-0.32 v -0.32 l 0.64,-0.32 M 113.6,79.14667 c 0.24748,0 0.0513,0.159307 -0.10667,0.10666 L 113.6,79.14667 M 48.640001,79.36 l -0.32,0.32 0.32,-0.32 M 125.44,79.68 v 0.64 h -0.64 v -0.64 h 0.64 m -66.559999,0.96 c -1.660235,1.705107 -0.995391,2.759385 0.96,3.84 l 0.96,-2.56 -1.92,-1.28 m -4.48,2.88 1.92,0.64 -0.32,-2.88 c -1.33562,0.144395 -1.502188,1.001055 -1.6,2.24 m 14.08,-2.24 v 0.32 h -0.96 l 0.96,-0.32 m -8.96,0.64 -0.32,0.32 0.32,-0.32 m 67.519999,0 -0.64,0.64 v -0.64 h 0.64 m -47.679999,0.32 0.32,0.32 -0.32,-0.32 m 11.84,0 v 0.64 h -0.64 v -0.64 h 0.64 m 25.493329,1.49333 -0.10666,0.21334 0.10666,-0.21334 M 123.84,83.84 l -0.32,0.32 0.32,-0.32 m 4.8,0 v 1.28 h -0.32 l -0.64,-1.28 h 0.96 m -33.599999,0.64 c 0.559717,1.012822 1.756914,4.301328 2.56,1.6 h 1.6 c -0.789043,-1.219434 -1.344365,-0.639902 -2.56,-0.32 -0.122471,-1.163516 -0.485195,-1.632041 -1.6,-1.28 m -49.173335,0.21333 0.10667,0.21334 -0.10667,-0.21334 m 21.013335,0.42667 -0.32,0.32 0.32,-0.32 m 10.56,0.32 v 0.64 h -0.64 v -0.64 h 0.64 m 0.96,0.64 -0.32,0.32 0.32,-0.32 M 118.4,86.4 l -0.32,0.32 0.32,-0.32 m -44.799999,0.32 c -1.99645,1.260918 -7.606187,2.069004 -7.68,4.8 l 7.36,-3.84 0.96,1.28 -0.64,-2.24 m 57.919999,0.64 -0.32,0.32 0.32,-0.32 m 6.08,2.24 3.84,-0.96 1.92,0.96 v -0.64 l 1.92,0.32 V 89.6 H 144 l -3.2,0.96 v 0.32 l 5.44,-0.32 v 0.64 l -5.12,0.96 v 0.32 l 5.76,-0.64 v 0.32 l -3.2,0.96 v 0.64 h 2.56 v 0.64 l -4.48,0.32 v 0.32 l 7.04,0.32 h 0.32 c -0.0295,-1.120645 -0.18225,-1.593643 -1.28,-1.92 1.41659,-4.893652 -2.47639,-5.501465 -6.4,-5.12 -1.23752,0.120313 -3.32896,-0.02084 -3.84,1.28 m -14.72,-1.28 -0.32,0.32 0.32,-0.32 m 9.6,0 -0.96,0.96 0.32,-0.96 h 0.64 m 13.44,0.96 -0.32,0.96 0.32,-0.96 m -132.48,1.6 2.88,-0.32 c -0.896084,-0.651699 -2.460929,-0.975313 -2.88,0.32 m 107.52,-0.32 v 0.64 h -0.64 l 0.64,-0.64 m 3.84,0 v 0.64 h -0.64 v -0.64 h 0.64 m 22.4,0 -0.32,0.32 0.32,-0.32 m -94.399999,0.32 -0.64,0.64 0.64,-0.64 m 0.64,0 -0.32,0.32 0.32,-0.32 m 80.319999,0 0.96,0.64 v 0.32 l -0.96,-0.96 m 0.96,1.28 -0.32,0.32 0.32,-0.32 M 7.3600001,95.36 h 0.96 C 9.7967732,93.077715 13.370934,96.354951 14.4,92.8 12.010506,92.8 6.2683619,91.588887 7.3600001,95.36 M 15.04,92.8 v 0.32 H 16 L 15.04,92.8 m 115.52,0.32 0.32,1.28 h -0.32 v -1.28 m 5.44,0 h 0.32 c 0.27672,0.853223 0.2488,0.992451 -0.64,1.28 L 136,93.12 m -9.6,0.32 -0.32,0.32 0.32,-0.32 M 12.48,94.18667 c 0.247476,0 0.05126,0.159307 -0.106666,0.10666 L 12.48,94.18667 m 134.72,0 c 0.24748,0 0.0513,0.159307 -0.10667,0.10666 L 147.2,94.18667 M 2.88,95.36 l 0.32,3.2 5.4400001,3.2 3.8399999,-0.8 17.6,0.48 c -1.139453,-1.812764 -3.528811,-1.655049 -5.44,-2.02667 -3.341872,-0.649805 -7.790337,-0.680918 -11.2,-0.16 C 11.739834,99.513086 9.5873689,100.61795 8.0000001,100.64 6.6850996,100.65826 3.8394825,97.656533 3.52,96.64 L 4.4800001,97.28 2.88,95.36 m 129.28,0 -0.64,0.96 v -0.96 h 0.64 m -88.959999,2.24 19.2,-0.32 c -0.429258,-1.092646 -2.109644,-1.129219 -3.2,-1.38667 -3.503257,-0.827158 -8.315679,-0.378437 -11.84,0.16 -1.41125,0.215615 -3.600865,0.02177 -4.16,1.54667 M 130.24,96 v 0.32 l -1.6,0.32 c 0.31914,-0.986455 0.67406,-1.005498 1.6,-0.64 m 8.32,0 -1.6,0.32 1.6,-0.32 m 6.72,0.96 c -0.95753,-0.251982 -1.28243,-0.341592 -1.6,0.64 1.80594,0 4.3191,-0.07149 5.44,-1.6 -1.07798,-0.255313 -4.04223,-0.415186 -3.84,0.96 m -77.119999,0.32 8.32,0.21333 14.4,0.10667 4.8,-0.32 -6.08,-1.28 -16.96,0.21333 -4.48,1.06667 M 124.8,96 v 0.64 h -0.64 V 96 h 0.64 m 6.08,0 -0.32,0.32 0.32,-0.32 m 0.64,1.6 0.32,0.32 -0.32,-0.32 m 9.28,0 0.64,0.64 V 97.6 h -0.64 m -131.1999999,0.32 0.32,0.32 -0.32,-0.32 M 31.36,99.84 v 0.32 l 8.96,1.28 3.520001,0.64 h 0.32 l 8.64,-0.64 c -1.835347,-1.25576 -4.227647,-1.3888 -6.4,-1.6 -5.315806,-0.516816 -9.691536,-0.985244 -15.040001,0 m 21.440001,0.32 c 1.44623,1.51196 5.619834,0.94832 7.68,1.12 6.132353,0.51103 12.615683,-0.14251 18.56,1.01333 2.070459,0.40259 4.532227,-0.55877 6.72,-0.21333 -1.540068,-2.380107 -6.120723,-1.99507 -8.64,-2.24 -7.161426,-0.69625 -17.538657,-2.71376 -24.32,0.32 m 35.84,0.32 7.36,0.96 h 0.32 c 1.499561,-0.78924 6.973669,-0.66624 7.999999,0.64 2.73992,-0.79313 4.97542,-0.16 7.68,-0.16 2.02631,0 3.27317,-1.07122 5.12,0.16 l 0.32,-0.96 1.28,0.32 c -1.10719,-1.711104 -3.89451,-1.68833 -5.76,-1.97333 C 107.24653,98.593779 101.73429,99.2 96.000001,99.2 c -1.68666,0 -6.736064,-0.42166 -7.36,1.28 M 119.04,99.52 c 0.4748,1.20859 2.94938,1.17622 4.16,1.22667 4.4695,0.18623 8.37993,-0.12089 12.8,0.69333 v -0.32 l -1.6,-0.32 v -0.32 l 7.68,-0.32 -5.44,-0.96 -17.6,0.32 m 13.12,0 -0.32,0.32 0.32,-0.32 m 3.52,0 -0.32,0.32 z"
       id="path1" />
  </g>
</svg>
