<?xml version="1.0" encoding="UTF-8" standalone="no"?>
<!-- Created with Inkscape (http://www.inkscape.org/) -->

<svg
   version="1.1"
   id="svg1"
   width="256"
   height="256"
   viewBox="0 0 256 256"
   sodipodi:docname="half.svg"
   inkscape:version="1.3 (0e150ed, 2023-07-21)"
   inkscape:export-filename="half.svg"
   inkscape:export-xdpi="96"
   inkscape:export-ydpi="96"
   xmlns:inkscape="http://www.inkscape.org/namespaces/inkscape"
   xmlns:sodipodi="http://sodipodi.sourceforge.net/DTD/sodipodi-0.dtd"
   xmlns="http://www.w3.org/2000/svg"
   xmlns:svg="http://www.w3.org/2000/svg">
  <defs
     id="defs1" />
  <sodipodi:namedview
     id="namedview1"
     pagecolor="#ffffff"
     bordercolor="#000000"
     borderopacity="0.25"
     inkscape:showpageshadow="2"
     inkscape:pageopacity="0.0"
     inkscape:pagecheckerboard="0"
     inkscape:deskcolor="#d1d1d1"
     showgrid="false"
     inkscape:zoom="4.522884"
     inkscape:cx="128.01566"
     inkscape:cy="128.01566"
     inkscape:window-width="1728"
     inkscape:window-height="911"
     inkscape:window-x="0"
     inkscape:window-y="38"
     inkscape:window-maximized="0"
     inkscape:current-layer="g1" />
  <g
     inkscape:groupmode="layer"
     inkscape:label="Image"
     id="g1">
    <path
       style="fill:#000000;stroke-width:1.29952"
       d="m 47.340464,204.84778 c -1.699966,-0.19772 -3.987197,-0.80969 -5.238203,-1.4015 -1.221347,-0.5778 -2.485769,-1.05053 -2.809827,-1.05053 -0.324057,0 -1.52235,-0.62552 -2.662873,-1.39003 -1.140525,-0.76451 -3.478404,-2.12755 -5.195289,-3.02896 -6.132444,-3.21973 -9.834582,-6.74005 -12.948027,-12.31213 -0.928583,-1.66186 -2.127025,-3.67653 -2.663201,-4.47704 -0.536177,-0.8005 -1.530112,-2.96793 -2.208745,-4.8165 -1.740545,-4.74118 -4.3594715,-14.1997 -4.9028513,-18.89418 -0.4060192,-3.50776 -0.9401893,-8.05857 -0.2135409,-11.01248 0.827005,-3.36185 2.8142442,-8.31798 5.1689442,-12.89122 1.179914,-2.2916 2.405896,-4.26427 5.427332,-8.73278 0.618593,-0.91486 1.963392,-2.92651 2.988441,-4.47034 1.025049,-1.54383 2.018089,-2.80697 2.206756,-2.80697 0.532245,0 7.885445,-11.77058 9.623287,-15.25033 5.03029,-10.072347 10.544749,-14.516697 15.424874,-17.00635 3.874562,-1.976654 10.450791,-2.590985 17.005412,0.689706 8.113264,4.060817 9.682076,10.579679 4.56001,18.948144 -0.862031,1.4084 -1.986255,3.56066 -2.498276,4.78282 -0.51202,1.22215 -1.077495,2.41797 -1.256611,2.65738 -0.179116,0.23941 -1.013821,1.83002 -1.8549,3.53469 -0.841079,1.70467 -2.06608,3.88166 -2.722226,4.83772 -0.656145,0.95607 -1.192991,1.87803 -1.192991,2.0488 0,0.44223 -2.79895,4.54455 -4.910627,7.19733 -0.985813,1.23843 -2.083841,2.82905 -2.440061,3.5347 -0.356222,0.70566 -0.986508,1.65727 -1.400637,2.1147 -0.721334,0.79676 -2.658924,3.95103 -4.597272,7.48406 -1.507156,2.74708 -1.296002,6.24147 0.648044,10.72447 1.335802,3.08038 2.114228,4.19862 4.959339,7.12427 3.923857,4.03491 5.424058,4.8877 10.714863,6.09079 7.197014,1.63657 6.947582,1.62023 11.580968,0.7587 7.964788,-1.48099 11.078866,-2.40886 15.854287,-4.724 5.255283,-2.54778 9.031727,-5.39631 11.480217,-8.65939 3.12967,-4.17088 6.79172,-10.61628 8.58123,-15.10338 0.99303,-2.48997 3.16132,-7.31253 4.81843,-10.7168 1.65711,-3.40429 3.35518,-7.18442 3.77351,-8.40029 0.71144,-2.06782 2.43067,-4.88473 5.68904,-9.32128 3.12378,-4.25329 5.25329,-5.65006 10.75234,-7.05269 7.01284,-1.78873 10.63546,-0.0768 15.47001,7.31069 2.44644,3.73829 2.97729,7.52267 2.97729,9.92686 0,2.49085 -0.28549,9.63205 -1.23844,13.31045 -2.68905,10.37985 -2.95449,11.69636 -2.74013,13.59052 0.51041,4.51064 4.10625,8.38784 8.58315,9.25479 0.8005,0.15502 2.58729,0.55108 3.97064,0.88015 4.66507,1.10971 13.47831,0.55794 20.67855,-1.29462 5.60754,-1.44278 14.34159,-7.47855 16.21128,-11.20298 0.78482,-1.5634 1.30221,-5.38541 2.64419,-11.63229 0.93278,-4.34212 1.15831,-7.80596 2.24298,-13.96557 1.51367,-8.59578 2.95637,-14.09367 4.20424,-17.22289 1.12038,-2.80948 1.40055,-7.325149 3.71659,-9.001654 0.95525,-0.691479 2.8133,-3.233249 4.83135,-4.2437 3.35123,-1.677978 4.09789,-1.88099 8.61643,-2.342731 10.56926,-1.080054 15.58589,0.707826 18.32985,6.532594 0.61939,1.314799 1.36456,2.67124 1.65595,3.014313 0.29138,0.343074 0.66537,1.185162 0.83109,1.871308 0.43283,1.79211 0.3254,11.2175 -0.15615,13.69902 -0.22446,1.15671 -0.49779,3.13235 -0.60741,4.39028 -0.10968,1.25794 -0.9434,6.12334 -1.85286,10.81201 -1.6814,8.66824 -2.97782,17.32751 -2.98839,19.96061 -0.003,0.8005 -0.6634,3.32677 -1.46707,5.61392 -0.80367,2.28716 -2.10658,6.10803 -2.89531,8.49083 -1.74451,5.27021 -2.58803,6.53338 -7.88053,11.80151 -4.08011,4.06132 -6.86336,6.22096 -10.87123,8.43541 -1.11945,0.61853 -2.971,1.73194 -4.11458,2.47426 -1.97177,1.27991 -7.64495,3.94085 -8.38663,3.93364 -0.19037,-9.6e-4 -1.74961,0.54389 -3.46498,1.21276 -15.39821,6.00423 -38.93204,8.53837 -54.68377,5.88841 -2.74459,-0.46171 -7.06687,-1.11246 -9.60505,-1.44608 -4.38593,-0.5765 -8.44385,-1.98591 -10.40578,-3.61416 -0.97616,-0.81015 -2.98861,-3.86699 -4.4744,-3.52079 -0.75089,0.17496 -4.68639,3.27783 -6.2874,4.08593 -1.601,0.80811 -4.0337,2.03339 -5.406,2.72285 -2.15911,1.08479 -13.534621,4.33486 -20.584384,5.88113 -3.196761,0.70117 -8.228616,2.08205 -10.093387,2.7699 -6.49272,2.39498 -24.431494,3.76216 -34.300875,2.61421 z"
       id="path1"
       sodipodi:nodetypes="sssssssssssssssssssssssssssssssssssssssssssssssssssssssscscssssscssssssssss" />
  </g>
</svg>
