<?xml version="1.0" encoding="UTF-8" standalone="no"?>
<!-- Created with Inkscape (http://www.inkscape.org/) -->

<svg
   width="100pt"
   height="100pt"
   viewBox="0 0 35.277777 35.277777"
   version="1.1"
   id="svg1"
   inkscape:version="1.3 (0e150ed, 2023-07-21)"
   sodipodi:docname="qeighth.svg"
   xmlns:inkscape="http://www.inkscape.org/namespaces/inkscape"
   xmlns:sodipodi="http://sodipodi.sourceforge.net/DTD/sodipodi-0.dtd"
   xmlns="http://www.w3.org/2000/svg"
   xmlns:svg="http://www.w3.org/2000/svg">
  <sodipodi:namedview
     id="namedview1"
     pagecolor="#ffffff"
     bordercolor="#000000"
     borderopacity="0.25"
     inkscape:showpageshadow="2"
     inkscape:pageopacity="0.0"
     inkscape:pagecheckerboard="0"
     inkscape:deskcolor="#d1d1d1"
     inkscape:document-units="mm"
     inkscape:zoom="2.9763752"
     inkscape:cx="65.179954"
     inkscape:cy="64.004027"
     inkscape:window-width="1472"
     inkscape:window-height="724"
     inkscape:window-x="261"
     inkscape:window-y="117"
     inkscape:window-maximized="0"
     inkscape:current-layer="layer1" />
  <defs
     id="defs1">
    <inkscape:path-effect
       effect="bspline"
       id="path-effect3"
       is_visible="true"
       lpeversion="1.3"
       weight="33.333333"
       steps="2"
       helper_size="0"
       apply_no_weight="true"
       apply_with_weight="true"
       only_selected="false"
       uniform="false" />
    <inkscape:path-effect
       effect="bspline"
       id="path-effect3-2"
       is_visible="true"
       lpeversion="1.3"
       weight="33.333333"
       steps="2"
       helper_size="0"
       apply_no_weight="true"
       apply_with_weight="true"
       only_selected="false"
       uniform="false" />
    <inkscape:path-effect
       effect="bspline"
       id="path-effect3-9"
       is_visible="true"
       lpeversion="1.3"
       weight="33.333333"
       steps="2"
       helper_size="0"
       apply_no_weight="true"
       apply_with_weight="true"
       only_selected="false"
       uniform="false" />
    <inkscape:path-effect
       effect="bspline"
       id="path-effect3-2-2"
       is_visible="true"
       lpeversion="1.3"
       weight="33.333333"
       steps="2"
       helper_size="0"
       apply_no_weight="true"
       apply_with_weight="true"
       only_selected="false"
       uniform="false" />
    <inkscape:path-effect
       effect="bspline"
       id="path-effect3-2-3"
       is_visible="true"
       lpeversion="1.3"
       weight="33.333333"
       steps="2"
       helper_size="0"
       apply_no_weight="true"
       apply_with_weight="true"
       only_selected="false"
       uniform="false" />
  </defs>
  <g
     inkscape:label="Layer 1"
     inkscape:groupmode="layer"
     id="layer1">
    <path
       style="fill:#000000;fill-opacity:1;stroke:#000000;stroke-width:0;stroke-linecap:square;stroke-linejoin:round;stroke-dasharray:none"
       d="m 5.9865309,25.772731 c 0.9066632,0.944905 2.6738169,0.42903 3.9282437,0.05316 1.9608944,-0.587545 3.5336674,-1.177637 5.3084464,-2.070299 1.604723,-0.807109 3.132491,-1.644888 4.61837,-2.654223 1.327544,-0.901765 2.950218,-1.896295 4.140576,-2.972707 1.164529,-1.053061 2.228834,-2.256972 3.025812,-3.60973 0.500423,-0.849384 0.979693,-1.77798 1.061688,-2.760402 0.0885,-1.061693 0.09686,-2.3596754 -0.637025,-3.1319926 -0.880975,-0.9271208 -2.339745,-1.1760801 -3.609731,-1.3270979 -1.177389,-0.1399966 -2.31567,-0.025053 -3.450502,0.318595 -0.624779,0.18926 -1.339066,0.5699764 -1.698686,1.1147646 -0.405488,0.6142295 -0.827843,1.3877149 -0.849357,2.1233769 -0.01948,0.640669 -0.02505,0.381051 0.1592,1.433276 0.08267,0.474178 0.75111,1.330242 1.114738,1.645637 0.514284,0.446012 0.935915,0.575293 1.592533,0.743177 0.656619,0.167829 1.247998,0.252438 2.335766,0.21236 0.875546,-0.252439 -0.811099,1.385175 -1.298941,1.763415 -0.937613,0.726951 -1.737886,1.220703 -2.609398,1.899391 -0.643564,0.501175 -1.407516,0.863413 -2.343988,1.433278 -0.91326,0.555727 -2.010579,1.206725 -2.992667,1.629024 -1.007583,0.433265 -1.810949,0.911809 -2.858277,1.237503 -0.882033,0.274426 -1.6075916,0.646097 -2.4949948,0.902432 -0.6351595,0.183415 -1.4588954,0.517141 -1.8662481,0.771417 -0.54053,0.337382 -1.0168106,0.785825 -0.5757808,1.245586 z"
       id="path8"
       sodipodi:nodetypes="sssssssssssssszcsssssssss" />
  </g>
</svg>
