<?xml version="1.0" encoding="UTF-8" standalone="no"?>
<!-- Created with Inkscape (http://www.inkscape.org/) -->

<svg
   width="100pt"
   height="100pt"
   viewBox="0 0 35.277777 35.277777"
   version="1.1"
   id="svg1"
   inkscape:version="1.3 (0e150ed, 2023-07-21)"
   sodipodi:docname="qeighth.svg"
   xmlns:inkscape="http://www.inkscape.org/namespaces/inkscape"
   xmlns:sodipodi="http://sodipodi.sourceforge.net/DTD/sodipodi-0.dtd"
   xmlns="http://www.w3.org/2000/svg"
   xmlns:svg="http://www.w3.org/2000/svg">
  <sodipodi:namedview
     id="namedview1"
     pagecolor="#ffffff"
     bordercolor="#000000"
     borderopacity="0.25"
     inkscape:showpageshadow="2"
     inkscape:pageopacity="0.0"
     inkscape:pagecheckerboard="0"
     inkscape:deskcolor="#d1d1d1"
     inkscape:document-units="mm"
     inkscape:zoom="4.5075"
     inkscape:cx="66.55574"
     inkscape:cy="66.666667"
     inkscape:window-width="1584"
     inkscape:window-height="814"
     inkscape:window-x="1920"
     inkscape:window-y="38"
     inkscape:window-maximized="0"
     inkscape:current-layer="layer1" />
  <defs
     id="defs1">
    <inkscape:path-effect
       effect="bspline"
       id="path-effect3"
       is_visible="true"
       lpeversion="1.3"
       weight="33.333333"
       steps="2"
       helper_size="0"
       apply_no_weight="true"
       apply_with_weight="true"
       only_selected="false"
       uniform="false" />
    <inkscape:path-effect
       effect="bspline"
       id="path-effect3-2"
       is_visible="true"
       lpeversion="1.3"
       weight="33.333333"
       steps="2"
       helper_size="0"
       apply_no_weight="true"
       apply_with_weight="true"
       only_selected="false"
       uniform="false" />
    <inkscape:path-effect
       effect="bspline"
       id="path-effect3-9"
       is_visible="true"
       lpeversion="1.3"
       weight="33.333333"
       steps="2"
       helper_size="0"
       apply_no_weight="true"
       apply_with_weight="true"
       only_selected="false"
       uniform="false" />
    <inkscape:path-effect
       effect="bspline"
       id="path-effect3-2-2"
       is_visible="true"
       lpeversion="1.3"
       weight="33.333333"
       steps="2"
       helper_size="0"
       apply_no_weight="true"
       apply_with_weight="true"
       only_selected="false"
       uniform="false" />
    <inkscape:path-effect
       effect="bspline"
       id="path-effect3-2-3"
       is_visible="true"
       lpeversion="1.3"
       weight="33.333333"
       steps="2"
       helper_size="0"
       apply_no_weight="true"
       apply_with_weight="true"
       only_selected="false"
       uniform="false" />
  </defs>
  <g
     inkscape:label="Layer 1"
     inkscape:groupmode="layer"
     id="layer1">
    <path
       style="fill:#000000;fill-opacity:1;stroke:#000000;stroke-width:0;stroke-linecap:square;stroke-linejoin:round;stroke-dasharray:none"
       d="m 3.3945991,29.31053 c 1.1880147,1.238123 3.5035432,0.562163 5.1472376,0.06966 2.5693893,-0.76987 4.6302163,-1.543076 6.9557363,-2.712746 2.102694,-1.057566 4.104551,-2.15532 6.051521,-3.477868 1.7395,-1.181596 3.865716,-2.484744 5.42546,-3.895183 1.5259,-1.379841 2.920475,-2.957344 3.964766,-4.729885 0.655713,-1.11296 1.283708,-2.329714 1.391147,-3.616996 C 32.44644,9.5563601 32.457379,7.8555915 31.495763,6.8436126 30.341409,5.6287936 28.42996,5.3025785 26.765878,5.1046975 25.223128,4.9212578 23.73162,5.0718705 22.244632,5.5221574 c -0.818656,0.2479903 -1.754597,0.7468492 -2.225814,1.4606939 -0.531316,0.8048343 -1.084735,1.8183455 -1.112925,2.7822942 -0.02553,0.8394795 -0.03282,0.4992965 0.208603,1.8780445 0.108317,0.621322 0.98419,1.743036 1.460657,2.156303 0.673874,0.584416 1.226344,0.753815 2.086721,0.973795 0.860378,0.219909 1.635271,0.330774 3.06059,0.278259 1.147241,-0.330774 -1.062795,1.815016 -1.702023,2.31063 -1.228568,0.952535 -2.277179,1.599505 -3.419133,2.488801 -0.843273,0.656698 -1.844291,1.131343 -3.071364,1.878046 -1.196659,0.728177 -2.634492,1.58119 -3.921337,2.134534 -1.320251,0.567714 -2.372913,1.194759 -3.7452422,1.62152 -1.1557406,0.359584 -2.1064518,0.846591 -3.2692296,1.18247 -0.8322593,0.240332 -1.9116129,0.677618 -2.4453734,1.010799 -0.7082646,0.442077 -1.3323425,1.029679 -0.7544543,1.632111 z"
       id="path8"
       sodipodi:nodetypes="sssssssssssssszcsssssssss" />
  </g>
</svg>
