<?xml version="1.0" encoding="UTF-8" standalone="no"?>
<!-- Created with Inkscape (http://www.inkscape.org/) -->

<svg
   width="100pt"
   height="100pt"
   viewBox="0 0 35.277777 35.277777"
   version="1.1"
   id="svg1"
   sodipodi:docname="qhalf.svg"
   inkscape:version="1.3 (0e150ed, 2023-07-21)"
   xmlns:inkscape="http://www.inkscape.org/namespaces/inkscape"
   xmlns:sodipodi="http://sodipodi.sourceforge.net/DTD/sodipodi-0.dtd"
   xmlns="http://www.w3.org/2000/svg"
   xmlns:svg="http://www.w3.org/2000/svg">
  <sodipodi:namedview
     id="namedview1"
     pagecolor="#ffffff"
     bordercolor="#000000"
     borderopacity="0.25"
     inkscape:showpageshadow="2"
     inkscape:pageopacity="0.0"
     inkscape:pagecheckerboard="0"
     inkscape:deskcolor="#d1d1d1"
     inkscape:document-units="mm"
     inkscape:zoom="3.108143"
     inkscape:cx="60.647145"
     inkscape:cy="62.577558"
     inkscape:window-width="872"
     inkscape:window-height="726"
     inkscape:window-x="27"
     inkscape:window-y="120"
     inkscape:window-maximized="0"
     inkscape:current-layer="layer1" />
  <defs
     id="defs1" />
  <g
     inkscape:label="Layer 1"
     inkscape:groupmode="layer"
     id="layer1">
    <path
       style="fill:#000000;fill-opacity:1;stroke:#000000;stroke-width:0;stroke-linecap:square;stroke-linejoin:round;stroke-dasharray:none"
       d="M 8.3426366,14.996118 C 8.6846549,14.63954 9.1476776,14.357732 9.3462129,13.905284 9.486914,13.584516 9.5648659,13.182801 9.4335449,12.858085 9.3177477,12.57144 9.0320762,12.334415 8.7354051,12.247214 8.3545402,12.13527 7.9342134,12.297084 7.5572944,12.421749 c -0.4386345,0.145069 -0.8593489,0.367905 -1.2217125,0.6545 -0.3960032,0.3132 -0.4886074,0.505755 -1.0696899,0.969148 -0.394095,0.314267 -0.6519191,0.674927 -1.0247305,1.014141 -0.4119168,0.374768 -0.7748628,0.914283 -1.0669729,1.388407 -0.3459972,0.561626 -0.5496106,1.173705 -0.6783446,1.820678 -0.1348797,0.677841 -0.2616733,1.361028 -0.3053392,2.050771 -0.043343,0.682378 -0.034286,1.371494 0.043666,2.050769 0.064367,0.561113 0.2283576,0.939501 0.448273,1.459687 0.1707829,0.40377 0.2270636,0.378989 0.8528472,0.996793 0.6354226,0.627372 0.7025714,0.600791 1.5350412,0.901935 1.0133445,0.366578 1.7158837,0.304176 2.5743915,0.318731 0.916179,0.01553 1.8337484,0.04564 2.7488943,0 0.729936,-0.03642 1.46566,-0.170849 2.181688,-0.317373 0.761633,-0.155839 1.504442,-0.407016 2.225288,-0.698134 0.482495,-0.194847 0.994649,-0.367244 1.396281,-0.698133 0.611906,-0.504149 0.690667,-0.839003 1.134444,-1.059125 0.120001,-0.05957 0.190837,-0.136304 0.326591,-0.186439 0.453123,-0.167452 0.549674,0.759076 0.895153,1.289221 0.344769,0.529036 1.049638,0.747294 1.658053,0.916299 0.757266,0.210341 1.570748,0.114852 2.356221,0.08726 0.950272,-0.03341 1.906073,-0.107768 2.836161,-0.305435 0.881829,-0.187409 1.774719,-0.412774 2.574392,-0.829036 0.534117,-0.278038 0.995198,-0.684849 1.439881,-1.090833 0.494236,-0.451204 0.800643,-0.742172 1.253443,-1.516602 0.443616,-0.75875 0.45031,-1.030651 0.632025,-1.736117 0.287227,-1.115282 0.418613,-1.428916 0.600297,-2.245089 0.196982,-0.88546 0.475864,-1.763075 0.600264,-2.661639 0.09185,-0.664134 0.09023,-2.291526 -0.26588,-2.569222 -0.949396,-0.74016 0.202159,0.121876 -0.479646,-0.401912 -0.657838,-0.505488 -1.902645,-0.149726 -2.152707,0.634717 -0.454225,1.425132 -0.117089,0.634987 -0.342439,1.52066 -0.197953,0.777516 -0.1517,0.446637 -0.361102,1.339359 -0.139408,0.59474 -0.305016,1.341714 -0.462797,1.931792 -0.213154,0.796333 -0.429253,1.148865 -0.645255,1.712274 -0.232886,0.607366 -0.60602,1.192899 -1.037991,1.679209 -0.439347,0.494632 -0.926919,0.961211 -1.55888,1.156962 -0.736469,0.228131 -1.674935,0.300196 -2.444817,0.341206 -0.655637,0.0349 -1.346564,-0.02425 -1.888185,-0.346356 -0.424694,-0.252488 -0.817624,-0.85639 -1.024666,-1.433399 -0.203451,-0.567268 -0.476737,-1.080226 -0.412499,-1.833957 0.05855,-0.687134 0.222859,-1.227925 0.391344,-1.811463 0.15073,-0.522083 0.270408,-1.052961 0.105772,-1.570803 -0.153641,-0.482704 -0.343152,-0.91234 -0.84748,-0.959926 -0.609029,-0.05748 -1.125388,0.202901 -1.515246,0.674281 -0.661428,0.799725 -0.630668,0.682495 -0.99164,1.748048 -0.216391,0.639007 -0.294666,1.28685 -0.460047,1.94101 -0.129704,0.513303 -0.15073,1.001172 -0.368866,1.483534 -0.257467,0.569045 -0.622904,1.223052 -1.071047,1.658066 -0.522764,0.50743 -1.271719,0.731514 -1.963519,0.959937 -0.758465,0.250448 -1.529316,0.513054 -2.323135,0.601653 -0.7377619,0.08236 -1.6214669,0.05126 -2.3575475,-0.04499 C 7.060179,23.280605 6.0289482,22.970481 6.0289482,22.970481 5.3908083,22.435595 5.3832715,22.295447 5.201265,21.846585 4.976789,21.293302 5.0595927,20.652169 5.1139325,20.057614 c 0.046253,-0.505906 0.1791935,-1.00475 0.3490701,-1.483535 0.1675483,-0.472069 0.364272,-0.944394 0.6545069,-1.352636 0.6077992,-0.854946 1.4989762,-1.46827 2.2250949,-2.225302 z"
       id="path10"
       sodipodi:nodetypes="sssssssssssssssssssssssssssssssssssssssssssssssssssssssssssssss" />
  </g>
</svg>
