<?xml version="1.0" encoding="UTF-8" standalone="no"?>
<!-- Created with Inkscape (http://www.inkscape.org/) -->

<svg
   width="100pt"
   height="100pt"
   viewBox="0 0 35.277777 35.277777"
   version="1.1"
   id="svg1"
   sodipodi:docname="qhalf.svg"
   inkscape:version="1.3 (0e150ed, 2023-07-21)"
   xmlns:inkscape="http://www.inkscape.org/namespaces/inkscape"
   xmlns:sodipodi="http://sodipodi.sourceforge.net/DTD/sodipodi-0.dtd"
   xmlns="http://www.w3.org/2000/svg"
   xmlns:svg="http://www.w3.org/2000/svg">
  <sodipodi:namedview
     id="namedview1"
     pagecolor="#ffffff"
     bordercolor="#000000"
     borderopacity="0.25"
     inkscape:showpageshadow="2"
     inkscape:pageopacity="0.0"
     inkscape:pagecheckerboard="0"
     inkscape:deskcolor="#d1d1d1"
     inkscape:document-units="mm"
     inkscape:zoom="3.108143"
     inkscape:cx="60.808012"
     inkscape:cy="62.577558"
     inkscape:window-width="1496"
     inkscape:window-height="824"
     inkscape:window-x="1920"
     inkscape:window-y="38"
     inkscape:window-maximized="0"
     inkscape:current-layer="layer1" />
  <defs
     id="defs1" />
  <g
     inkscape:label="Layer 1"
     inkscape:groupmode="layer"
     id="layer1">
    <path
       style="fill:#000000;fill-opacity:1;stroke:#000000;stroke-width:0;stroke-linecap:square;stroke-linejoin:round;stroke-dasharray:none"
       d="M 7.8899807,12.85197 C 8.26553,12.460434 8.7739467,12.150998 8.9919461,11.654192 9.1464414,11.301977 9.2320356,10.860878 9.0878405,10.504327 8.9606907,10.18958 8.6470124,9.9293173 8.3212562,9.8335682 7.9030518,9.7106492 7.4415168,9.8883272 7.0276452,10.025214 6.5460077,10.184505 6.084047,10.429187 5.6861578,10.74388 c -0.4348267,0.343905 -0.5365097,0.555338 -1.1745607,1.064162 -0.4327315,0.345077 -0.7158322,0.741095 -1.1251935,1.113565 -0.4523005,0.41151 -0.8508292,1.003919 -1.1715773,1.524525 -0.3799183,0.616687 -0.6034937,1.288773 -0.7448486,1.999175 -0.1481031,0.744295 -0.2873273,1.494461 -0.3352742,2.251825 -0.047592,0.749277 -0.037647,1.505953 0.047947,2.251823 0.070678,0.616124 0.2507454,1.031609 0.492221,1.602793 0.1875262,0.443355 0.2493246,0.416144 0.9364591,1.094517 0.6977185,0.688879 0.7714504,0.659692 1.6855344,0.990359 1.1126912,0.402517 1.8841063,0.333997 2.826781,0.349979 1.0059998,0.01705 2.0135263,0.05011 3.018391,0 0.801497,-0.03999 1.609351,-0.187598 2.395577,-0.348487 0.836302,-0.171118 1.651935,-0.44692 2.443452,-0.766578 0.529798,-0.21395 1.092163,-0.403249 1.53317,-0.766577 0.671897,-0.553576 0.758379,-0.921258 1.245664,-1.162961 0.131765,-0.06541 0.209546,-0.149666 0.358609,-0.204717 0.497547,-0.183868 0.603563,0.833495 0.982913,1.415615 0.378569,0.580901 1.152542,0.820557 1.820605,1.006131 0.831508,0.230963 1.724742,0.126112 2.587222,0.09582 1.043435,-0.03669 2.092942,-0.118334 3.114214,-0.33538 0.968282,-0.205782 1.94871,-0.453242 2.826781,-0.910313 0.586482,-0.305297 1.092766,-0.751991 1.581045,-1.197777 0.54269,-0.495439 0.879137,-0.814933 1.376329,-1.665287 0.487107,-0.833137 0.494458,-1.131695 0.693988,-1.906324 0.315386,-1.224622 0.459653,-1.569005 0.659149,-2.465194 0.216294,-0.972269 0.522517,-1.935924 0.659113,-2.922582 0.10086,-0.729245 0.09908,-2.516184 -0.291946,-2.821105 -1.042474,-0.8127232 0.221978,0.133825 -0.52667,-0.4413148 -0.722332,-0.5550448 -2.089178,-0.1644046 -2.363755,0.6969438 -0.498757,1.56485 -0.128569,0.69724 -0.376012,1.669743 -0.21736,0.853743 -0.166572,0.490425 -0.396504,1.470668 -0.153075,0.653047 -0.334919,1.473254 -0.508168,2.121182 -0.234052,0.874404 -0.471337,1.261498 -0.708515,1.880143 -0.255718,0.666911 -0.665434,1.309849 -1.139754,1.843836 -0.48242,0.543125 -1.017793,1.055447 -1.711711,1.270389 -0.808671,0.250496 -1.839143,0.329627 -2.684503,0.374657 -0.719915,0.03832 -1.478579,-0.02663 -2.0733,-0.380312 -0.46633,-0.277242 -0.897782,-0.940349 -1.125122,-1.573927 -0.223398,-0.622883 -0.523476,-1.18613 -0.45294,-2.013756 0.06429,-0.754499 0.244707,-1.348309 0.429711,-1.989056 0.165507,-0.573267 0.296918,-1.156192 0.116141,-1.724802 -0.168704,-0.530028 -0.376794,-1.001785 -0.930566,-1.054036 -0.668737,-0.06312 -1.235719,0.222793 -1.663798,0.740387 -0.726273,0.878128 -0.692498,0.749406 -1.088859,1.919424 -0.237606,0.701654 -0.323554,1.413011 -0.505149,2.131304 -0.14242,0.563626 -0.165507,1.099325 -0.405029,1.628977 -0.282709,0.624833 -0.683973,1.342958 -1.176051,1.82062 -0.574015,0.557178 -1.396397,0.803231 -2.15602,1.054048 -0.832823,0.275002 -1.679248,0.563353 -2.55089,0.660638 -0.8100915,0.09043 -1.7804336,0.05629 -2.5886785,-0.0494 C 6.4817929,21.948656 5.3494617,21.608128 5.3494617,21.608128 4.6487595,21.020802 4.6404838,20.866914 4.4406337,20.374046 4.1941504,19.766521 4.2850721,19.062532 4.3447393,18.409687 c 0.050788,-0.555504 0.1967613,-1.103254 0.3832924,-1.628978 0.1839744,-0.51835 0.3999846,-1.036981 0.7186737,-1.485247 0.667387,-0.938763 1.6459337,-1.612217 2.4432399,-2.443467 z"
       id="path10"
       sodipodi:nodetypes="sssssssssssssssssssssssssssssssssssssssssssssssssssssssssssssss" />
  </g>
</svg>
