<?xml version="1.0" encoding="UTF-8" standalone="no"?>
<!-- Created with Inkscape (http://www.inkscape.org/) -->

<svg
   width="100pt"
   height="100pt"
   viewBox="0 0 35.277777 35.277777"
   version="1.1"
   id="svg1"
   sodipodi:docname="qthird.svg"
   inkscape:version="1.3 (0e150ed, 2023-07-21)"
   xmlns:inkscape="http://www.inkscape.org/namespaces/inkscape"
   xmlns:sodipodi="http://sodipodi.sourceforge.net/DTD/sodipodi-0.dtd"
   xmlns="http://www.w3.org/2000/svg"
   xmlns:svg="http://www.w3.org/2000/svg">
  <sodipodi:namedview
     id="namedview1"
     pagecolor="#ffffff"
     bordercolor="#000000"
     borderopacity="0.25"
     inkscape:showpageshadow="2"
     inkscape:pageopacity="0.0"
     inkscape:pagecheckerboard="0"
     inkscape:deskcolor="#d1d1d1"
     inkscape:document-units="mm"
     inkscape:zoom="3.108143"
     inkscape:cx="60.808012"
     inkscape:cy="62.577558"
     inkscape:window-width="1496"
     inkscape:window-height="824"
     inkscape:window-x="1920"
     inkscape:window-y="38"
     inkscape:window-maximized="0"
     inkscape:current-layer="layer1" />
  <defs
     id="defs1" />
  <g
     inkscape:label="Layer 1"
     inkscape:groupmode="layer"
     id="layer1">
    <g
       id="g7"
       transform="matrix(1.6987832,0,0,2.3495209,-167.81709,-84.529464)">
      <path
         style="fill:#000000;stroke:#000000;stroke-width:0;stroke-linecap:square;stroke-linejoin:round;stroke-dasharray:none"
         d="m 101.88394,47.903326 c 0.5776,-0.036 1.43016,0.0829 2.14492,0.06552 1.2294,-0.02989 1.98123,-0.09677 2.73398,-0.371003 0.47912,-0.174549 0.97582,-0.401312 1.32349,-0.634711 0.28776,-0.193183 0.53907,-0.374622 0.61567,-0.74794 0.0921,-0.449012 0.21291,-1.010843 -0.0803,-0.99302 -0.34934,0.02124 -1.41783,0.02782 -1.73297,-0.297906 -0.26368,-0.272537 -0.41154,-0.635222 -0.37735,-1.01288 0.0294,-0.324343 0.1805,-0.673101 0.43693,-0.873861 0.21372,-0.167322 0.62355,-0.251982 0.89372,-0.278044 0.45487,-0.04388 0.88084,-0.03239 1.27107,0.139022 0.12886,0.0566 0.37072,0.253144 0.43693,0.377347 0.12244,0.229702 0.14409,0.752633 0.13902,1.012882 -0.0184,0.945877 0.0297,1.607915 -0.3169,2.463103 -0.21247,0.524249 -1.02298,1.00751 -1.02005,1.006535 0,0 -0.8723,0.468941 -1.3243,0.602571 -1.66641,0.492663 -3.72204,0.362623 -5.18357,0.271287 -0.26462,-0.01654 -0.22494,-0.712404 0.0397,-0.728898 z"
         id="path5"
         sodipodi:nodetypes="sssssssssssssscssss" />
      <ellipse
         style="fill:#ffffff;fill-opacity:1;stroke:#000000;stroke-width:0;stroke-linecap:square;stroke-linejoin:round;stroke-dasharray:none"
         id="path6"
         cx="108.13046"
         cy="43.970963"
         rx="0.72490519"
         ry="0.53623116" />
      <path
         style="fill:#000000;fill-opacity:1;stroke:#000000;stroke-width:0;stroke-linecap:square;stroke-linejoin:round;stroke-dasharray:none"
         d="m 109.57668,44.204995 c 3e-5,0.103958 0.88781,0.173539 0.89413,-0.203712 0.0261,-1.56062 -0.004,-3.918786 0.0127,-5.710397 0.002,-0.231694 0.68951,-0.231636 0.69511,0 0.0357,1.476905 -0.002,3.426927 7.8e-4,4.820968 7.7e-4,0.33127 0.74046,0.270498 1.07164,0.262475 0.45437,-0.01101 0.92044,-8.78e-4 1.38347,-0.01351 0.40174,-0.01096 1.19545,-0.04615 1.63285,-0.138606 0.40824,-0.08629 0.58587,-0.115369 0.74324,-0.343564 0.10821,-0.156915 0.17642,-0.21253 0.35114,-0.21253 0.16162,0 0.33839,0.169023 0.37141,0.331693 0.0287,0.141214 -0.0646,0.268603 -0.18464,0.390863 -0.1253,0.127624 -0.28548,0.274687 -0.45003,0.344795 -0.34718,0.147916 -0.54867,0.192403 -0.86833,0.237503 -1.25212,0.176656 -2.53544,0.109643 -3.75362,0.204538 -0.20809,0.01621 -0.2679,0.340589 -0.37018,0.475828 -0.1374,0.181688 -0.21053,0.302523 -0.41032,0.411955 -0.33721,0.184704 -1.08638,0.05958 -1.08638,0.05958 0,0 -0.0331,-1.267586 -0.033,-1.035797 z"
         id="path7"
         sodipodi:nodetypes="ssssssssssasssssscss" />
    </g>
  </g>
</svg>
