<?xml version="1.0" encoding="UTF-8" standalone="no"?>
<!-- Created with Inkscape (http://www.inkscape.org/) -->

<svg
   width="100pt"
   height="100pt"
   viewBox="0 0 35.277777 35.277777"
   version="1.1"
   id="svg1"
   inkscape:version="1.3 (0e150ed, 2023-07-21)"
   sodipodi:docname="qtwothirds.svg"
   xmlns:inkscape="http://www.inkscape.org/namespaces/inkscape"
   xmlns:sodipodi="http://sodipodi.sourceforge.net/DTD/sodipodi-0.dtd"
   xmlns="http://www.w3.org/2000/svg"
   xmlns:svg="http://www.w3.org/2000/svg">
  <sodipodi:namedview
     id="namedview1"
     pagecolor="#ffffff"
     bordercolor="#000000"
     borderopacity="0.25"
     inkscape:showpageshadow="2"
     inkscape:pageopacity="0.0"
     inkscape:pagecheckerboard="0"
     inkscape:deskcolor="#d1d1d1"
     inkscape:document-units="mm"
     inkscape:zoom="3.6574893"
     inkscape:cx="35.270096"
     inkscape:cy="67.122547"
     inkscape:window-width="1584"
     inkscape:window-height="814"
     inkscape:window-x="1920"
     inkscape:window-y="38"
     inkscape:window-maximized="0"
     inkscape:current-layer="layer1" />
  <defs
     id="defs1">
    <inkscape:path-effect
       effect="bspline"
       id="path-effect3"
       is_visible="true"
       lpeversion="1.3"
       weight="33.333333"
       steps="2"
       helper_size="0"
       apply_no_weight="true"
       apply_with_weight="true"
       only_selected="false"
       uniform="false" />
    <inkscape:path-effect
       effect="bspline"
       id="path-effect3-2"
       is_visible="true"
       lpeversion="1.3"
       weight="33.333333"
       steps="2"
       helper_size="0"
       apply_no_weight="true"
       apply_with_weight="true"
       only_selected="false"
       uniform="false" />
    <inkscape:path-effect
       effect="bspline"
       id="path-effect3-9"
       is_visible="true"
       lpeversion="1.3"
       weight="33.333333"
       steps="2"
       helper_size="0"
       apply_no_weight="true"
       apply_with_weight="true"
       only_selected="false"
       uniform="false" />
    <inkscape:path-effect
       effect="bspline"
       id="path-effect3-2-2"
       is_visible="true"
       lpeversion="1.3"
       weight="33.333333"
       steps="2"
       helper_size="0"
       apply_no_weight="true"
       apply_with_weight="true"
       only_selected="false"
       uniform="false" />
    <inkscape:path-effect
       effect="bspline"
       id="path-effect3-2-3"
       is_visible="true"
       lpeversion="1.3"
       weight="33.333333"
       steps="2"
       helper_size="0"
       apply_no_weight="true"
       apply_with_weight="true"
       only_selected="false"
       uniform="false" />
  </defs>
  <g
     inkscape:label="Layer 1"
     inkscape:groupmode="layer"
     id="layer1">
    <path
       style="fill:#000000;fill-opacity:1;stroke:#000000;stroke-width:0;stroke-linecap:square;stroke-linejoin:round;stroke-dasharray:none"
       d="m 8.4016629,12.147214 c 0.4831384,0.07969 0.9717519,0.500376 0.9058981,0.985614 -0.042714,0.314736 -0.1453558,0.50664 -0.3518832,0.685625 -0.5483793,0.475247 -0.7297977,0.544985 -1.0810001,0.896241 -0.428336,0.428402 -0.7554926,0.776428 -1.0454193,1.098447 -0.2869347,0.318702 -0.594323,0.675068 -1.1147763,1.392122 -0.327125,0.450696 -0.4138624,0.600159 -0.8177989,1.286174 -0.2944374,0.50005 -0.8258201,1.074034 -0.7651274,1.836684 0.041046,0.515772 0.6459731,1.013595 1.029521,1.366287 0.6371268,0.58587 0.5707691,0.465923 0.9252573,0.786963 0.407937,0.369425 1.0038925,0.644011 1.4681014,0.939621 0.5633714,0.358765 1.244367,0.68776 1.8695041,0.922939 0.5682947,0.213773 1.0795554,0.394418 1.6751554,0.512429 0.797924,0.158019 1.625085,0.224109 2.438076,0.250491 0.760609,0.02447 1.53196,0.03128 2.282451,-0.09493 0.636669,-0.106891 1.572647,-0.399994 2.178692,-0.622499 0.478787,-0.175696 1.672871,-0.786744 1.734582,-1.193104 0.05984,-0.394664 -0.232539,-0.968235 -0.671835,-1.303147 C 18.747472,21.65411 17.656957,21.155034 17.272056,21.069497 16.5223,20.902776 15.855904,20.83587 15.099674,20.745465 14.28089,20.647555 14.309882,20.609748 13.647213,20.486 13.163339,20.39543 12.803488,20.207742 12.65518,19.86981 c -0.152579,-0.347666 0.04325,-0.721634 0.259465,-1.031143 0.269528,-0.385499 0.729018,-0.465348 1.251307,-0.646542 1.113379,-0.386257 2.179128,-0.746302 3.313594,-1.065302 1.026793,-0.2887 2.042732,-0.614881 3.060575,-0.933719 0.970601,-0.304042 1.947512,-0.59046 2.904951,-0.933749 1.015558,-0.364121 2.073219,-0.663975 3.08206,-1.046346 0.808123,-0.3063 1.661856,-0.625219 2.474765,-0.918545 0.864341,-0.311902 1.640855,-0.745683 2.522357,-1.005066 0.442641,-0.130277 0.862495,-0.462327 1.310005,-0.349974 0.356561,0.08948 0.642463,0.410031 0.82999,0.726231 0.162642,0.274233 0.279591,0.623152 0.207517,0.933748 -0.125109,0.539248 -0.537004,0.656646 -1.03748,0.893252 -0.535089,0.25297 -0.88569,0.418136 -1.31835,0.585809 -0.770753,0.298548 -1.457827,0.518359 -2.332193,0.853744 -0.935962,0.359012 -1.922194,0.68847 -2.885588,0.965613 -0.904076,0.26001 -1.784081,0.531224 -2.697432,0.756611 -0.819872,0.20235 -1.495651,0.524696 -2.306521,0.76039 -0.268168,0.07806 -1.882456,0.443458 -1.987629,0.702162 -0.128373,0.315546 0.464126,0.447816 1.11717,0.692098 0.450105,0.168369 0.80233,0.429884 1.10202,0.741433 0.247226,0.257019 0.418951,0.510064 0.646515,0.784435 0.301322,0.36325 0.422786,0.679477 0.546562,1.134901 0.131637,0.484173 0.130549,0.956922 0.05195,1.452489 -0.06337,0.399777 -0.417592,0.80233 -0.687149,1.104522 -0.334421,0.375218 -0.296595,0.367323 -0.765449,0.76292 -0.407124,0.343512 -0.967338,0.511778 -1.443622,0.750302 -0.567234,0.284051 -1.043953,0.461107 -1.668818,0.570605 -0.801215,0.14034 -1.624677,0.293598 -2.438075,0.287071 -1.177821,-0.01091 -2.352241,0.05439 -3.527449,-0.02448 C 11.54818,27.32704 10.847597,27.158689 10.165263,27.03426 9.5624023,26.924386 8.9577997,26.772623 8.4015541,26.515524 7.8574114,26.263946 7.3389433,26.020037 6.8238476,25.713385 6.1657198,25.321603 5.4038493,24.901565 4.7344476,24.357923 4.0197034,23.777457 3.9685571,23.753377 3.4341677,23.244492 2.9130564,22.748252 2.7350398,22.57565 2.2804371,22.05438 1.9294002,21.651856 1.639551,21.003758 1.6857749,20.394401 c 0.03986,-0.525468 0.1754789,-0.820008 0.3479309,-1.193104 0.2656663,-0.574768 0.4615378,-0.92987 0.8361219,-1.556221 0.3075678,-0.514292 0.702582,-1.055385 1.1138622,-1.62526 0.4493645,-0.622645 0.8249812,-1.050847 1.2602818,-1.683409 0.3398422,-0.493854 0.8773417,-1.022952 1.3531012,-1.467669 0.567897,-0.530843 1.1169255,-0.835591 1.8046444,-0.721959 z"
       id="path9"
       sodipodi:nodetypes="sssssssssssssssssssssssssssssssssssssssssssssssssssssssssssssssss" />
  </g>
</svg>
