<?xml version="1.0" encoding="UTF-8" standalone="no"?>
<!-- Created with Inkscape (http://www.inkscape.org/) -->

<svg
   version="1.1"
   id="svg1"
   width="220.8"
   height="171.2"
   viewBox="0 0 220.8 171.2"
   sodipodi:docname="third.svg"
   inkscape:version="1.3 (0e150ed, 2023-07-21)"
   xmlns:inkscape="http://www.inkscape.org/namespaces/inkscape"
   xmlns:sodipodi="http://sodipodi.sourceforge.net/DTD/sodipodi-0.dtd"
   xmlns="http://www.w3.org/2000/svg"
   xmlns:svg="http://www.w3.org/2000/svg">
  <defs
     id="defs1" />
  <sodipodi:namedview
     id="namedview1"
     pagecolor="#ffffff"
     bordercolor="#000000"
     borderopacity="0.25"
     inkscape:showpageshadow="2"
     inkscape:pageopacity="0.0"
     inkscape:pagecheckerboard="0"
     inkscape:deskcolor="#d1d1d1"
     inkscape:zoom="3.633312"
     inkscape:cx="110.36762"
     inkscape:cy="85.459216"
     inkscape:window-width="1712"
     inkscape:window-height="898"
     inkscape:window-x="0"
     inkscape:window-y="38"
     inkscape:window-maximized="0"
     inkscape:current-layer="g1" />
  <g
     inkscape:groupmode="layer"
     inkscape:label="Image"
     id="g1">
    <path
       style="fill:#000000"
       d="m 26.72,157.13342 c -4.224,-0.13113 -8.688,-0.40603 -9.92,-0.61087 -1.232,-0.20485 -3.188501,-0.5231 -4.347781,-0.70723 -1.159279,-0.18413 -2.5711375,-0.61657 -3.1374623,-0.96097 -1.2847277,-0.78129 -2.5873164,-3.45958 -2.5916306,-5.32873 -0.00268,-1.16024 0.1918203,-1.55712 1.356874,-2.76872 0.9261642,-0.96316 1.8193556,-1.53883 2.7999999,-1.80461 1.432671,-0.38829 6.537132,-0.34373 24.211245,0.21136 6.984245,0.21935 9.956983,-0.0214 16.588756,-1.34367 10.265613,-2.04675 12.816958,-2.39893 15.149019,-3.82472 2.822779,-1.7258 6.207031,-2.81713 12.236988,-4.81272 4.695096,-1.55382 4.186593,-2.09995 11.013993,-5.56213 8.163528,-4.13973 9.963959,-5.32301 10.941739,-7.19112 0.67837,-1.29606 1.69826,-5.09408 1.69826,-6.32421 0,-2.8058 -3.047559,-5.80796 -6.43373,-6.33789 -2.070855,-0.32408 -7.660222,-1.4381 -10.475321,-2.08784 -4.194981,-0.96822 -8.459539,-4.39659 -10.556631,-8.486707 -1.21247,-2.364774 -1.334317,-2.819504 -1.334317,-4.97964 0,-2.487372 -0.0771,-6.310207 0.464038,-7.978932 0.328675,-1.013548 4.559188,-5.934351 5.814344,-6.575397 0.397733,-0.203134 3.633119,-1.751197 5.171386,-2.094566 1.538267,-0.34337 3.470387,-0.723919 4.966387,-1.182058 2.559923,-0.783959 1.620107,-0.272134 6.038047,-0.106058 4.508967,0.169498 4.810987,0.224358 7.653727,1.390234 2.37544,0.974222 3.39,1.615187 5.14066,3.247684 2.77942,2.591815 3.26776,3.409138 4.13888,6.927109 0.60695,2.451122 0.89183,3.051767 1.91694,4.041641 0.98575,0.951871 1.58552,1.229093 3.30817,1.52908 4.05643,0.706397 8.39979,-0.231996 9.6801,-2.091403 1.65853,-2.408711 2.13557,-4.249124 2.14627,-8.280338 0.006,-2.138599 -0.23106,-5.328727 -0.53431,-7.2 -0.29947,-1.848 -0.69443,-5.808 -0.87767,-8.8 -0.18324,-2.992 -0.47203,-7.672 -0.64176,-10.4 -0.16973,-2.728 -0.21798,-8.128 -0.10723,-12 0.13365,-4.672479 0.0787,-7.825152 -0.16349,-9.374709 -0.42239,-2.702871 -1.14243,-13.999744 -1.14634,-17.98529 -0.002,-2.275098 0.11963,-2.929366 0.74503,-4 1.97221,-3.3762273 5.29377,-3.9696975 8.60127,-1.536805 0.80122,0.58935 1.17583,1.245199 1.66149,2.908857 1.50215,5.145658 1.61147,7.576975 1.29083,28.707947 -0.10357,6.825525 -0.0289,10.333098 0.25843,12.136603 0.22226,1.395131 0.48,4.707131 0.57276,7.359999 0.37897,10.838221 2.56334,14.999398 8.4781,16.150591 2.19924,0.428037 23.6984,0.240256 29.74394,-0.259795 10.85838,-0.898139 14.46925,-1.457673 16.96,-2.628087 3.07955,-1.447094 9.57047,-3.799383 11.05901,-4.007747 1.65936,-0.232278 4.3718,0.879678 5.28945,2.168399 0.83339,1.170387 1.54057,4.597522 1.23154,5.968286 -0.27008,1.197993 -4.33093,4.230089 -5.69571,4.935844 -1.66313,0.860037 -8.52736,4.364778 -12.52429,5.192254 -5.3883,1.115526 -12.84961,1.456777 -27.52,1.258654 -10.86654,-0.146751 -5.53265,-0.11354 -10.17878,-0.0736 -1.48649,0.01278 -6.08991,0.458182 -6.28531,0.578942 -0.1954,0.120764 -2.67364,0.416708 -3.82523,0.657654 -3.78955,0.792876 -5.87767,3.793167 -7.53665,7.490734 -0.63907,1.42436 -1.42336,2.46387 -2.77259,3.67482 -2.83269,2.54238 -3.60462,2.83498 -9.45008,3.58217 -6.49908,0.83074 -7.3963,1.24212 -10.48044,4.8053 -2.46059,2.84278 -3.35265,4.72486 -3.70393,7.8146 -0.36133,3.17808 -1.38422,6.46977 -2.56066,8.24024 -1.43119,2.15388 -5.12136,5.0742 -8.75295,6.9269 -0.66982,0.34171 -1.853669,1.15251 -2.630781,1.80177 -1.22164,1.02065 -11.183299,6.1025 -13.195569,6.7316 -0.388866,0.12157 -3.155029,1.39606 -6.147029,2.83219 -2.992,1.43612 -6.736,3.05874 -8.32,3.60581 -11.034004,3.81085 -19.586903,6.01469 -25.203038,6.49412 -5.989112,0.51127 -10.870298,0.59614 -19.276963,0.33516 z M 98.338064,97.448865 c 2.259226,-1.073786 3.770206,-4.132088 3.294446,-6.668121 -0.27126,-1.445933 -1.776193,-3.236163 -3.429463,-4.079598 -1.887316,-0.962837 -5.989367,-2.228213 -8.113521,-1.117303 -2.075743,1.085592 -4.819298,3.516367 -5.029593,5.381654 -0.321411,2.850869 2.281888,7.143332 7.260068,7.423197 2.454029,0.137962 3.852718,0.08934 6.018063,-0.939829 z"
       id="path1"
       sodipodi:nodetypes="sssssssscsssssssssssssssssssscssssccsssssssssssssssssssssssssssssssssssssss" />
  </g>
</svg>
